<svg width="28" height="28" viewBox="0 0 28 28" fill="none" xmlns="http://www.w3.org/2000/svg">
<path d="M11.8125 28H16.1875C16.7916 28 17.2812 27.5103 17.2812 26.9062C17.2812 26.3022 16.7916 25.8125 16.1875 25.8125H11.8125C11.2084 25.8125 10.7188 26.3022 10.7188 26.9062C10.7188 27.5103 11.2084 28 11.8125 28Z" fill="white"/>
<path d="M14 0C13.3959 0 12.9062 0.489672 12.9062 1.09375V2.26598C9.2009 2.7983 6.34375 5.99342 6.34375 9.84375V16.5679C6.34375 16.9533 6.17012 17.304 5.91177 17.4405C4.82891 18.0123 4.15625 19.1247 4.15625 20.3438C4.15625 22.153 5.62822 23.625 7.4375 23.625H20.5625C22.3718 23.625 23.8438 22.153 23.8438 20.3438C23.8438 19.1247 23.1711 18.0123 22.0882 17.4405C21.8298 17.3041 21.6562 16.9534 21.6562 16.5679V9.84375C21.6562 5.99342 18.7991 2.7983 15.0938 2.26598V1.09375C15.0938 0.489672 14.6041 0 14 0V0ZM19.4688 9.84375V16.5679C19.4688 17.7788 20.0811 18.8543 21.0668 19.3749C21.4304 19.5668 21.6562 19.9381 21.6562 20.3438C21.6562 20.9468 21.1656 21.4375 20.5625 21.4375H7.4375C6.83441 21.4375 6.34375 20.9468 6.34375 20.3438C6.34375 19.9381 6.56961 19.5668 6.93317 19.3749C7.91891 18.8543 8.53125 17.7788 8.53125 16.5679V9.84375C8.53125 6.82828 10.9845 4.375 14 4.375C17.0155 4.375 19.4688 6.82828 19.4688 9.84375Z" fill="white"/>
</svg>
