<svg width="11" height="12" viewBox="0 0 11 12" fill="none" xmlns="http://www.w3.org/2000/svg">
<g opacity="0.7" clip-path="url(#clip0_396_717)">
<path d="M5.48808 10.1657L10.5923 1.91967C10.6532 1.82201 10.6238 1.69316 10.5268 1.63189C10.4964 1.61273 10.4617 1.60181 10.4259 1.60018C10.3901 1.59855 10.3545 1.60628 10.3225 1.6226L5.31192 4.1438L0.300475 1.62155C0.198308 1.56934 0.0734215 1.61034 0.0215082 1.71314C0.00527953 1.74527 -0.00239945 1.78109 -0.000781069 1.8171C0.000837315 1.85311 0.0116968 1.88809 0.0307407 1.91862L5.13493 10.1647C5.19529 10.2627 5.32319 10.2929 5.4206 10.2321C5.44783 10.2152 5.47079 10.1921 5.48766 10.1647L5.48808 10.1657Z" fill="#070707"/>
</g>
<defs>
<clipPath id="clip0_396_717">
<rect width="10.6902" height="10.625" fill="white" transform="translate(10.624 0.586182) rotate(90)"/>
</clipPath>
</defs>
</svg>
