<svg width="16" height="16" viewBox="0 0 16 16" fill="none" xmlns="http://www.w3.org/2000/svg">
<g clip-path="url(#clip0_396_535)">
<path d="M15.0836 5.6C14.873 5.6 14.6711 5.51571 14.5222 5.36569C14.3733 5.21566 14.2897 5.01217 14.2897 4.8V1.6H11.1142C10.9036 1.6 10.7017 1.51571 10.5528 1.36569C10.404 1.21566 10.3203 1.01217 10.3203 0.8C10.3203 0.587827 10.404 0.384344 10.5528 0.234315C10.7017 0.0842854 10.9036 0 11.1142 0H14.2897C14.7108 0 15.1146 0.168571 15.4124 0.468629C15.7102 0.768687 15.8774 1.17565 15.8774 1.6V4.8C15.8774 5.01217 15.7938 5.21566 15.6449 5.36569C15.496 5.51571 15.2941 5.6 15.0836 5.6Z" fill="#5B65CC"/>
<path d="M14.2897 15.9999H11.1142C10.9036 15.9999 10.7017 15.9156 10.5528 15.7656C10.404 15.6156 10.3203 15.4121 10.3203 15.1999C10.3203 14.9877 10.404 14.7842 10.5528 14.6342C10.7017 14.4842 10.9036 14.3999 11.1142 14.3999H14.2897V11.1999C14.2897 10.9877 14.3733 10.7842 14.5222 10.6342C14.6711 10.4842 14.873 10.3999 15.0836 10.3999C15.2941 10.3999 15.496 10.4842 15.6449 10.6342C15.7938 10.7842 15.8774 10.9877 15.8774 11.1999V14.3999C15.8774 14.8242 15.7102 15.2312 15.4124 15.5313C15.1146 15.8313 14.7108 15.9999 14.2897 15.9999Z" fill="#5B65CC"/>
<path d="M4.76325 15.9999H1.58775C1.16665 15.9999 0.762803 15.8313 0.465042 15.5313C0.16728 15.2312 0 14.8242 0 14.3999V11.1999C0 10.9877 0.0836402 10.7842 0.232521 10.6342C0.381401 10.4842 0.583327 10.3999 0.793876 10.3999C1.00442 10.3999 1.20635 10.4842 1.35523 10.6342C1.50411 10.7842 1.58775 10.9877 1.58775 11.1999V14.3999H4.76325C4.9738 14.3999 5.17573 14.4842 5.32461 14.6342C5.47349 14.7842 5.55713 14.9877 5.55713 15.1999C5.55713 15.4121 5.47349 15.6156 5.32461 15.7656C5.17573 15.9156 4.9738 15.9999 4.76325 15.9999Z" fill="#5B65CC"/>
<path d="M0.793876 5.6C0.583327 5.6 0.381401 5.51571 0.232521 5.36569C0.0836402 5.21566 0 5.01217 0 4.8V1.6C0 1.17565 0.16728 0.768687 0.465042 0.468629C0.762803 0.168571 1.16665 0 1.58775 0H4.76325C4.9738 0 5.17573 0.0842854 5.32461 0.234315C5.47349 0.384344 5.55713 0.587827 5.55713 0.8C5.55713 1.01217 5.47349 1.21566 5.32461 1.36569C5.17573 1.51571 4.9738 1.6 4.76325 1.6H1.58775V4.8C1.58775 5.01217 1.50411 5.21566 1.35523 5.36569C1.20635 5.51571 1.00442 5.6 0.793876 5.6Z" fill="#5B65CC"/>
</g>
<defs>
<clipPath id="clip0_396_535">
<rect width="15.8775" height="16" fill="white"/>
</clipPath>
</defs>
</svg>
