<svg width="39" height="33" viewBox="0 0 39 33" fill="none" xmlns="http://www.w3.org/2000/svg">
<g filter="url(#filter0_d_436_15564)">
<path fill-rule="evenodd" clip-rule="evenodd" d="M26.0821 1.09319e-08C26.5054 -3.74377e-05 26.9223 0.0961398 27.2968 0.280224C27.6713 0.464308 27.9922 0.730764 28.2318 1.05658L28.3452 1.22699L32.6915 8.32601C32.9568 8.75931 33.0731 9.2583 33.0246 9.75538C32.9761 10.2525 32.7652 10.7236 32.4203 11.105L32.2717 11.2547L20.1703 22.5545C19.8864 22.8195 19.5078 22.9773 19.107 22.9977C18.7063 23.0182 18.3115 22.8998 17.9984 22.6653L17.8655 22.5557L5.76405 11.2547C5.38603 10.9019 5.13328 10.4491 5.04001 9.95772C4.94674 9.46631 5.01746 8.96001 5.2426 8.50738L5.34428 8.32479L9.68922 1.22577C9.89922 0.8826 10.1955 0.592329 10.5526 0.380037C10.9096 0.167744 11.3167 0.0398159 11.7385 0.00730358L11.951 1.09319e-08H26.0821ZM12.8805 7.66017C12.6361 7.88844 12.4988 8.198 12.4988 8.52077C12.4988 8.84354 12.6361 9.1531 12.8805 9.38137L17.8642 14.0349C18.0155 14.1763 18.1952 14.2884 18.3929 14.3649C18.5906 14.4414 18.8025 14.4807 19.0166 14.4807C19.2306 14.4807 19.4425 14.4414 19.6403 14.3649C19.838 14.2884 20.0176 14.1763 20.169 14.0349L25.1527 9.38137C25.2772 9.26908 25.3765 9.13476 25.4448 8.98625C25.5131 8.83774 25.5491 8.67802 25.5506 8.51639C25.5521 8.35476 25.5191 8.19448 25.4536 8.04488C25.388 7.89529 25.2912 7.75938 25.1688 7.64509C25.0464 7.53079 24.9009 7.44041 24.7407 7.3792C24.5805 7.318 24.4088 7.2872 24.2357 7.28861C24.0626 7.29001 23.8916 7.32359 23.7325 7.38738C23.5735 7.45118 23.4296 7.54391 23.3094 7.66017L19.0166 11.6686L14.7238 7.66017C14.4793 7.43197 14.1478 7.30378 13.8021 7.30378C13.4564 7.30378 13.1249 7.43197 12.8805 7.66017Z" fill="url(#paint0_angular_436_15564)"/>
</g>
<defs>
<filter id="filter0_d_436_15564" x="0" y="0" width="38.0352" height="33" filterUnits="userSpaceOnUse" color-interpolation-filters="sRGB">
<feFlood flood-opacity="0" result="BackgroundImageFix"/>
<feColorMatrix in="SourceAlpha" type="matrix" values="0 0 0 0 0 0 0 0 0 0 0 0 0 0 0 0 0 0 127 0" result="hardAlpha"/>
<feOffset dy="5"/>
<feGaussianBlur stdDeviation="2.5"/>
<feComposite in2="hardAlpha" operator="out"/>
<feColorMatrix type="matrix" values="0 0 0 0 0 0 0 0 0 0 0 0 0 0 0 0 0 0 0.25 0"/>
<feBlend mode="normal" in2="BackgroundImageFix" result="effect1_dropShadow_436_15564"/>
<feBlend mode="normal" in="SourceGraphic" in2="effect1_dropShadow_436_15564" result="shape"/>
</filter>
<radialGradient id="paint0_angular_436_15564" cx="0" cy="0" r="1" gradientUnits="userSpaceOnUse" gradientTransform="translate(19.0177 11.5) rotate(-90) scale(38 56.1894)">
<stop stop-color="#F49B43"/>
<stop offset="0.230388" stop-color="#FFC48A"/>
<stop offset="0.495604" stop-color="#A75300"/>
<stop offset="0.778364" stop-color="#FFC48A"/>
</radialGradient>
</defs>
</svg>
