<svg width="27" height="28" viewBox="0 0 27 28" fill="none" xmlns="http://www.w3.org/2000/svg">
<g clip-path="url(#clip0_495_1018)">
<path fill-rule="evenodd" clip-rule="evenodd" d="M1.86703 7.01147C0.703797 7.79206 0 9.14067 0 10.5892V23.7528C0 26.0985 1.81282 28 4.049 28H22.951C25.1872 28 27 26.0985 27 23.7529V10.5892C27 9.14067 26.2962 7.79206 25.133 7.01147L15.682 0.669441C14.3518 -0.223147 12.6482 -0.223147 11.318 0.669441L1.86703 7.01147ZM10.1225 22.9557C9.78708 22.9557 9.51515 23.2409 9.51515 23.5928C9.51515 23.9446 9.78708 24.2299 10.1225 24.2299H16.8777C17.2131 24.2299 17.485 23.9446 17.485 23.5928C17.485 23.2409 17.2131 22.9557 16.8777 22.9557H10.1225Z" fill="#5B65CC"/>
</g>
<defs>
<clipPath id="clip0_495_1018">
<rect width="27" height="28" fill="white"/>
</clipPath>
</defs>
</svg>
