<svg width="26" height="16" viewBox="0 0 26 16" fill="none" xmlns="http://www.w3.org/2000/svg">
<path d="M1 9.39992C5.8 -1.79997 20.2 -1.79997 25 9.39992" stroke="#5B65CC" stroke-width="1.5" stroke-linecap="round" stroke-linejoin="round"/>
<path d="M13 15C12.4747 15 11.9546 14.8914 11.4693 14.6803C10.984 14.4693 10.543 14.1599 10.1716 13.7699C9.80014 13.3799 9.5055 12.9169 9.30448 12.4073C9.10346 11.8978 9 11.3516 9 10.8001C9 10.2485 9.10346 9.70237 9.30448 9.1928C9.5055 8.68324 9.80014 8.22024 10.1716 7.83024C10.543 7.44023 10.984 7.13087 11.4693 6.9198C11.9546 6.70873 12.4747 6.6001 13 6.6001C14.0609 6.6001 15.0783 7.04259 15.8284 7.83024C16.5786 8.61788 17 9.68616 17 10.8001C17 11.914 16.5786 12.9822 15.8284 13.7699C15.0783 14.5575 14.0609 15 13 15Z" fill="#5B65CC" stroke="#5B65CC" stroke-width="1.5" stroke-linecap="round" stroke-linejoin="round"/>
</svg>
