<svg width="25" height="24" viewBox="0 0 25 24" fill="none" xmlns="http://www.w3.org/2000/svg">
<g clip-path="url(#clip0_396_336)">
<path d="M11.2255 0.00452489C8.24982 0.00931073 5.39748 1.14547 3.29337 3.16409C1.18927 5.1827 0.00498852 7.91916 0 10.7739C0.00248694 13.6311 1.18537 16.3708 3.28947 18.3928C5.39357 20.4148 8.24732 21.5542 11.2255 21.5614C13.8668 21.5614 16.3005 20.67 18.2249 19.1948L22.899 23.6791C23.1358 23.8903 23.4487 24.0052 23.772 23.9998C24.0953 23.9944 24.4038 23.869 24.6327 23.6499C24.8617 23.4309 24.9932 23.1352 24.9997 22.8251C25.0063 22.515 24.8873 22.2145 24.6677 21.9867L19.9936 17.498C21.59 15.5932 22.4603 13.2225 22.4604 10.7784C22.4604 4.84169 17.4136 0.00452489 11.2255 0.00452489ZM11.2255 2.40275C16.0647 2.40275 19.9606 6.13583 19.9606 10.7739C19.9606 15.412 16.0647 19.1677 11.2255 19.1677C6.38625 19.1677 2.49507 15.4255 2.49507 10.783C2.49507 6.14035 6.38625 2.40275 11.2255 2.40275Z" fill="white"/>
</g>
<defs>
<clipPath id="clip0_396_336">
<rect width="25" height="24" fill="white"/>
</clipPath>
</defs>
</svg>
