<svg width="38" height="34" viewBox="0 0 38 34" fill="none" xmlns="http://www.w3.org/2000/svg">
<g filter="url(#filter0_d_396_356)">
<path fill-rule="evenodd" clip-rule="evenodd" d="M26.0556 0.235352C26.4783 0.235313 26.8946 0.334073 27.2687 0.5231C27.6427 0.712127 27.9632 0.985738 28.2025 1.3203L28.3158 1.49529L32.6565 8.78493C32.9215 9.22987 33.0377 9.74225 32.9893 10.2527C32.9408 10.7631 32.7301 11.2469 32.3857 11.6385L32.2373 11.7923L20.1511 23.3955C19.8676 23.6676 19.4895 23.8296 19.0892 23.8506C18.689 23.8716 18.2947 23.75 17.982 23.5092L17.8492 23.3967L5.76308 11.7923C5.38555 11.43 5.13311 10.9651 5.03996 10.4605C4.94681 9.95585 5.01744 9.43595 5.2423 8.97117L5.34385 8.78368L9.68331 1.49404C9.89304 1.14165 10.189 0.843586 10.5456 0.625593C10.9022 0.4076 11.3087 0.276237 11.73 0.242851L11.9422 0.235352H26.0556ZM12.8705 8.10121C12.6264 8.33561 12.4893 8.65348 12.4893 8.98492C12.4893 9.31636 12.6264 9.63423 12.8705 9.86863L17.8479 14.6471C17.9991 14.7923 18.1785 14.9074 18.376 14.9859C18.5735 15.0645 18.7851 15.1049 18.9989 15.1049C19.2126 15.1049 19.4243 15.0645 19.6218 14.9859C19.8193 14.9074 19.9987 14.7923 20.1498 14.6471L25.1272 9.86863C25.2516 9.75332 25.3508 9.6154 25.419 9.4629C25.4873 9.3104 25.5232 9.14639 25.5247 8.98042C25.5262 8.81446 25.4932 8.64986 25.4278 8.49625C25.3623 8.34264 25.2656 8.20308 25.1434 8.08572C25.0211 7.96836 24.8758 7.87555 24.7158 7.8127C24.5558 7.74985 24.3843 7.71823 24.2114 7.71967C24.0386 7.72111 23.8677 7.75559 23.7089 7.8211C23.55 7.88661 23.4064 7.98183 23.2863 8.10121L18.9989 12.2173L14.7115 8.10121C14.4674 7.86689 14.1363 7.73525 13.791 7.73525C13.4458 7.73525 13.1147 7.86689 12.8705 8.10121Z" fill="url(#paint0_angular_396_356)"/>
</g>
<defs>
<filter id="filter0_d_396_356" x="0" y="0.235352" width="38" height="33.6177" filterUnits="userSpaceOnUse" color-interpolation-filters="sRGB">
<feFlood flood-opacity="0" result="BackgroundImageFix"/>
<feColorMatrix in="SourceAlpha" type="matrix" values="0 0 0 0 0 0 0 0 0 0 0 0 0 0 0 0 0 0 127 0" result="hardAlpha"/>
<feOffset dy="5"/>
<feGaussianBlur stdDeviation="2.5"/>
<feComposite in2="hardAlpha" operator="out"/>
<feColorMatrix type="matrix" values="0 0 0 0 0 0 0 0 0 0 0 0 0 0 0 0 0 0 0.25 0"/>
<feBlend mode="normal" in2="BackgroundImageFix" result="effect1_dropShadow_396_356"/>
<feBlend mode="normal" in="SourceGraphic" in2="effect1_dropShadow_396_356" result="shape"/>
</filter>
<radialGradient id="paint0_angular_396_356" cx="0" cy="0" r="1" gradientUnits="userSpaceOnUse" gradientTransform="translate(19 12.0441) rotate(-90) scale(39.0204 56.1185)">
<stop offset="0.00623196" stop-color="#D5D5D5"/>
<stop offset="0.207149" stop-color="#FCFCFC"/>
<stop offset="0.488576" stop-color="#676767"/>
<stop offset="0.781542" stop-color="#FCFCFC"/>
</radialGradient>
</defs>
</svg>
