<svg width="28" height="28" viewBox="0 0 28 28" fill="none" xmlns="http://www.w3.org/2000/svg">
<g clip-path="url(#clip0_396_349)">
<path d="M14 0C13.547 0 13.1797 0.367281 13.1797 0.820312V2.57031C13.1797 3.02334 13.547 3.39062 14 3.39062C14.453 3.39062 14.8203 3.02334 14.8203 2.57031V0.820312C14.8203 0.367281 14.453 0 14 0ZM14 24.6094C13.547 24.6094 13.1797 24.9767 13.1797 25.4297V27.1797C13.1797 27.6327 13.547 28 14 28C14.453 28 14.8203 27.6327 14.8203 27.1797V25.4297C14.8203 24.9767 14.453 24.6094 14 24.6094ZM6.53674 5.3766L5.29927 4.13913C4.97891 3.81883 4.45949 3.81883 4.13919 4.13913C3.81883 4.45949 3.81883 4.97891 4.13919 5.29922L5.37666 6.53669C5.53678 6.69687 5.74673 6.77698 5.95667 6.77698C6.16662 6.77698 6.37656 6.69687 6.53674 6.53669C6.8571 6.21633 6.8571 5.69691 6.53674 5.3766ZM23.8609 22.7007L22.6234 21.4633C22.303 21.143 21.7836 21.143 21.4633 21.4633C21.143 21.7836 21.143 22.303 21.4633 22.6233L22.7008 23.8608C22.7769 23.9371 22.8673 23.9976 22.9668 24.0389C23.0663 24.0801 23.1731 24.1012 23.2808 24.1011C23.4907 24.1011 23.7007 24.021 23.8609 23.8608C24.1812 23.5405 24.1812 23.021 23.8609 22.7007ZM2.57031 13.1797H0.820312C0.367281 13.1797 0 13.547 0 14C0 14.453 0.367281 14.8203 0.820312 14.8203H2.57031C3.02334 14.8203 3.39062 14.453 3.39062 14C3.39062 13.547 3.02334 13.1797 2.57031 13.1797ZM27.1797 13.1797H25.4297C24.9767 13.1797 24.6094 13.547 24.6094 14C24.6094 14.453 24.9767 14.8203 25.4297 14.8203H27.1797C27.6327 14.8203 28 14.453 28 14C28 13.547 27.6327 13.1797 27.1797 13.1797ZM6.53674 21.4633C6.21638 21.143 5.69696 21.143 5.37666 21.4633L4.13919 22.7007C3.81883 23.0211 3.81883 23.5405 4.13919 23.8608C4.29931 24.021 4.50926 24.1011 4.7192 24.1011C4.92915 24.1011 5.13909 24.021 5.29922 23.8609L6.53674 22.6233C6.8571 22.303 6.8571 21.7836 6.53674 21.4633ZM23.8609 4.13919C23.5405 3.81888 23.0211 3.81888 22.7008 4.13919L21.4633 5.3766C21.143 5.69696 21.143 6.21638 21.4633 6.53669C21.6234 6.69687 21.8334 6.77698 22.0433 6.77698C22.2533 6.77698 22.4632 6.69687 22.6234 6.53674L23.8609 5.29927C24.1812 4.97891 24.1812 4.45949 23.8609 4.13919ZM14 5.30469C9.20538 5.30469 5.30469 9.20538 5.30469 14C5.30469 18.7946 9.20538 22.6953 14 22.6953C18.7946 22.6953 22.6953 18.7946 22.6953 14C22.6953 9.20538 18.7946 5.30469 14 5.30469ZM14.8203 21.0067V6.99327C18.3252 7.40102 21.0547 10.3875 21.0547 14C21.0547 17.6125 18.3252 20.599 14.8203 21.0067Z" fill="white"/>
</g>
<defs>
<clipPath id="clip0_396_349">
<rect width="28" height="28" fill="white"/>
</clipPath>
</defs>
</svg>
