<svg width="34" height="34" viewBox="0 0 34 34" fill="none" xmlns="http://www.w3.org/2000/svg">
<path d="M3.13333 0.625H2.75833V1V3.13333V3.50833H3.13333H7.68884C3.41485 6.46641 0.625 11.3987 0.625 17C0.625 21.3429 2.35022 25.508 5.42113 28.5789C8.49203 31.6498 12.6571 33.375 17 33.375C26.0394 33.375 33.375 26.0175 33.375 17C33.375 9.0525 27.7417 2.45952 20.2752 0.931283L19.825 0.839138V1.29867V3.496V3.7933L20.1145 3.86112C26.0495 5.25149 30.4917 10.6068 30.4917 17C30.4917 20.5782 29.0702 24.0099 26.54 26.54C24.0099 29.0702 20.5782 30.4917 17 30.4917C9.54882 30.4917 3.50833 24.4306 3.50833 17C3.50833 11.576 6.69212 6.9054 11.2917 4.7735V11.6667V12.0417H11.6667H13.8H14.175V11.6667V1V0.625H13.8H3.13333Z" fill="#5B65CC" stroke="#5B65CC" stroke-width="0.75"/>
</svg>
